HIERARCHY
ROOT Hips
{
	OFFSET 49.768101 -5.268425 86.454399
	CHANNELS 6 Xposition Yposition Zposition Xrotation Yrotation Zrotation
	JOINT spine
	{
		OFFSET 0.000000 -0.393701 6.846367
		CHANNELS 3 Xrotation Yrotation Zrotation
		JOINT spine1
		{
			OFFSET 0.000000 -0.000001 9.496208
			CHANNELS 3 Xrotation Yrotation Zrotation
			JOINT spine2
			{
				OFFSET 0.000000 -0.000001 9.099091
				CHANNELS 3 Xrotation Yrotation Zrotation
				JOINT Neck
				{
					OFFSET 0.000000 -1.113784 23.361198
					CHANNELS 3 Xrotation Yrotation Zrotation
					JOINT Head
					{
						OFFSET 0.000000 -0.000001 7.058014
						CHANNELS 3 Xrotation Yrotation Zrotation
						End Site
						{
							OFFSET 0.000000 5.634188 17.084396
						}
					}
				}
				JOINT RightShoulder
				{
					OFFSET -3.831360 0.533489 9.826309
					CHANNELS 3 Xrotation Yrotation Zrotation
					JOINT RightArm
					{
						OFFSET 0.000000 -0.000002 12.888100
						CHANNELS 3 Xrotation Yrotation Zrotation
						JOINT RightArmRoll
						{
							OFFSET 0.000000 -0.000001 6.506165
							CHANNELS 3 Xrotation Yrotation Zrotation
							JOINT RightForeArm
							{
								OFFSET 0.000000 -0.000003 18.950104
								CHANNELS 3 Xrotation Yrotation Zrotation
								JOINT RightForeArmRoll
								{
									OFFSET 0.000000 -0.000001 7.300919
									CHANNELS 3 Xrotation Yrotation Zrotation
									JOINT RightHand
									{
										OFFSET 0.000000 -0.000002 14.651398
										CHANNELS 3 Xrotation Yrotation Zrotation
										End Site
										{
											OFFSET 0.000000 0.000000 0.100006
										}
									}
								}
							}
						}
					}
				}
				JOINT LeftShoulder
				{
					OFFSET 3.831360 0.533489 9.826309
					CHANNELS 3 Xrotation Yrotation Zrotation
					JOINT LeftArm
					{
						OFFSET 0.000000 -0.000002 12.888100
						CHANNELS 3 Xrotation Yrotation Zrotation
						JOINT LeftArmRoll
						{
							OFFSET 0.000000 -0.000001 6.506165
							CHANNELS 3 Xrotation Yrotation Zrotation
							JOINT LeftForeArm
							{
								OFFSET 0.000000 -0.000003 18.950104
								CHANNELS 3 Xrotation Yrotation Zrotation
								JOINT LeftForeArmRoll
								{
									OFFSET 0.000000 -0.000001 7.300919
									CHANNELS 3 Xrotation Yrotation Zrotation
									JOINT LeftHand
									{
										OFFSET 0.000000 -0.000002 14.651398
										CHANNELS 3 Xrotation Yrotation Zrotation
										End Site
										{
											OFFSET 0.000000 0.000000 0.100006
										}
									}
								}
							}
						}
					}
				}
			}
		}
	}
	JOINT RightUpLeg
	{
		OFFSET -6.068371 0.933477 -1.112778
		CHANNELS 3 Xrotation Yrotation Zrotation
		JOINT RightUpLegRoll
		{
			OFFSET 0.000000 -0.000003 17.179604
			CHANNELS 3 Xrotation Yrotation Zrotation
			JOINT RightLeg
			{
				OFFSET 0.000000 0.000003 -21.274300
				CHANNELS 3 Xrotation Yrotation Zrotation
				JOINT RightLegRoll
				{
					OFFSET 0.000000 -0.000003 21.343903
					CHANNELS 3 Xrotation Yrotation Zrotation
					JOINT RightFoot
					{
						OFFSET 0.000000 -0.000003 17.765198
						CHANNELS 3 Xrotation Yrotation Zrotation
						JOINT RightToeBase
						{
							OFFSET 0.000000 -0.000002 14.850792
							CHANNELS 3 Xrotation Yrotation Zrotation
							End Site
							{
								OFFSET 0.006294 0.829004 7.192123
							}
						}
					}
				}
			}
		}
	}
	JOINT LeftUpLeg
	{
		OFFSET 6.068371 0.933477 -1.112778
		CHANNELS 3 Xrotation Yrotation Zrotation
		JOINT LeftUpLegRoll
		{
			OFFSET 0.000000 -0.000003 17.179703
			CHANNELS 3 Xrotation Yrotation Zrotation
			JOINT LeftLeg
			{
				OFFSET 0.000000 -0.000003 21.274200
				CHANNELS 3 Xrotation Yrotation Zrotation
				JOINT LeftLegRoll
				{
					OFFSET 0.000000 -0.000004 21.541206
					CHANNELS 3 Xrotation Yrotation Zrotation
					JOINT LeftFoot
					{
						OFFSET 0.000000 -0.000003 17.567902
						CHANNELS 3 Xrotation Yrotation Zrotation
						JOINT LeftToeBase
						{
							OFFSET 0.000000 -0.000002 14.850800
							CHANNELS 3 Xrotation Yrotation Zrotation
							End Site
							{
								OFFSET -0.028210 0.829004 7.192123
							}
						}
					}
				}
			}
		}
	}
}
MOTION
Frames: 4
Frame Time: 0.041667
49.819901 -3.075645 86.404892 -4.120881 -0.014341 -1.106053 -1.537713 -1.506258 1.188919 0.958998 -3.029887 2.353274 2.604447 -3.001901 2.389485 3.772838 18.674659 5.843725 13.121579 -5.205365 4.001554 -6.546712 -44.708994 -6.422241 -54.526671 -166.474140 -67.026893 -0.000004 0.000001 -0.000006 10.591168 -23.166409 3.047072 -0.000012 0.000000 -3.002360 -5.000209 -7.998753 0.000164 -30.284318 75.177850 34.612759 119.205953 16.967300 -116.261745 0.000001 0.000000 -0.000000 0.232857 28.395806 -0.588692 -0.000010 -0.000021 3.048592 -5.000223 7.999010 -0.000116 -13.155406 179.164495 -2.401301 -179.999991 0.000005 -1.411003 155.409248 -3.690115 -1.192085 -0.000002 0.000004 0.764911 72.156208 7.926181 -1.018151 25.456853 -7.355619 -0.000002 -11.222194 176.967988 -0.333747 -0.000006 -0.000004 -0.907988 -26.410905 1.457173 1.258801 -0.000001 -0.000000 -0.538885 75.244458 -6.071610 -4.143694 25.456952 7.355613 -0.000010 
49.820000 -3.084496 86.407402 -4.114393 -0.016169 -1.111523 -1.538481 -1.506267 1.189599 0.957470 -3.029829 2.354612 2.602915 -3.001827 2.390821 3.766472 18.678979 5.839152 13.119174 -5.205670 3.995054 -6.557035 -44.706303 -6.435262 -54.534027 -166.455917 -67.056741 -0.000003 -0.000000 -0.000007 10.638104 -23.160661 3.056473 -0.000010 -0.000003 -3.002361 -5.000211 -7.998757 0.000163 -30.295331 75.181962 34.624384 119.131545 16.979729 -116.326209 0.000001 -0.000000 0.000000 0.232375 28.303006 -0.568364 -0.000007 -0.000023 3.049229 -5.000223 7.999013 -0.000114 -13.163496 179.167446 -2.402068 -179.999991 0.000005 -1.411003 155.404494 -3.688147 -1.191557 -0.000002 0.000005 0.764968 72.159186 7.925176 -1.015820 25.456856 -7.355619 -0.000002 -11.225164 176.970953 -0.331617 -0.000006 -0.000004 -0.908095 -26.410205 1.457692 1.258747 -0.000001 -0.000000 -0.538890 75.247497 -6.071610 -4.143031 25.456952 7.355613 -0.000011 
49.810799 -3.094477 86.411400 -4.107441 -0.017736 -1.117204 -1.539413 -1.506397 1.190281 0.955629 -3.030111 2.355959 2.601072 -3.002072 2.392165 3.760447 18.683890 5.834163 13.116271 -5.206179 3.988125 -6.568766 -44.702219 -6.449959 -54.539720 -166.437804 -67.092634 -0.000002 0.000000 -0.000006 10.687159 -23.157913 3.067279 -0.000014 -0.000000 -3.002360 -5.000207 -7.998755 0.000164 -30.307629 75.185985 34.637412 119.055771 16.991929 -116.390986 -0.000000 0.000001 -0.000000 0.231953 28.209711 -0.547769 -0.000007 -0.000024 3.049901 -5.000224 7.999012 -0.000116 -13.173090 179.169427 -2.403543 -179.999991 0.000005 -1.411003 155.397841 -3.686136 -1.192168 -0.000001 0.000005 0.765012 72.162738 7.923744 -1.012398 25.456858 -7.355620 -0.000002 -11.229043 176.973944 -0.329576 -0.000003 -0.000004 -0.908201 -26.410612 1.458189 1.258687 -0.000001 -0.000000 -0.538896 75.251138 -6.071516 -4.142621 25.456955 7.355613 -0.000010 
49.808300 -3.101168 86.412796 -4.100138 -0.019039 -1.123095 -1.540475 -1.506646 1.190987 0.953521 -3.030692 2.357338 2.598960 -3.002615 2.393550 3.754768 18.689196 5.828779 13.112871 -5.206809 3.980767 -6.581810 -44.697175 -6.466245 -54.544149 -166.419936 -67.132529 -0.000004 0.000002 -0.000006 10.738084 -23.157393 3.079188 -0.000011 0.000001 -3.002349 -5.000212 -7.998750 0.000165 -30.320873 75.189878 34.651452 118.978726 17.004538 -116.454944 -0.000000 0.000000 -0.000000 0.231599 28.116610 -0.527181 -0.000010 -0.000021 3.050580 -5.000227 7.999016 -0.000115 -13.183783 179.172391 -2.406093 -179.999991 0.000005 -1.411003 155.389823 -3.682259 -1.192016 -0.000002 0.000004 0.765045 72.166802 7.921979 -1.008064 25.456854 -7.355619 -0.000003 -11.233716 176.976950 -0.327652 -0.000006 -0.000005 -0.908308 -26.411923 1.458665 1.258618 -0.000001 -0.000000 -0.538901 75.255291 -6.071335 -4.142374 25.456950 7.355614 -0.000010 
